<?xml version="1.0" encoding="UTF-8" standalone="no"?>
<svg
   xmlns:dc="http://purl.org/dc/elements/1.1/"
   xmlns:cc="http://creativecommons.org/ns#"
   xmlns:rdf="http://www.w3.org/1999/02/22-rdf-syntax-ns#"
   xmlns:svg="http://www.w3.org/2000/svg"
   xmlns="http://www.w3.org/2000/svg"
   xmlns:xlink="http://www.w3.org/1999/xlink"
   version="1.1"
   x="0px"
   y="0px"
   width="232"
   height="50.88102"
   viewBox="0 -0.704 232 50.88102"
   overflow="visible"
   enable-background="new 0 -0.704 782 172"
   xml:space="preserve"
   id="svg14"><metadata
   id="metadata18"><rdf:RDF><cc:Work
       rdf:about=""><dc:format>image/svg+xml</dc:format><dc:type
         rdf:resource="http://purl.org/dc/dcmitype/StillImage" /><dc:title></dc:title></cc:Work></rdf:RDF></metadata>
<defs
   id="defs2">
</defs>
<g
   id="g12"
   transform="translate(0,-0.704)">
	<defs
   id="defs5">
		<rect
   id="SVGID_1_"
   width="781.05103"
   height="171.29601"
   x="0"
   y="0" />
	</defs>
	<clipPath
   id="SVGID_2_">
		<use
   xlink:href="#SVGID_1_"
   overflow="visible"
   id="use7"
   x="0"
   y="0"
   width="100%"
   height="100%" />
	</clipPath>
	<g
   id="g844"
   transform="scale(0.29703565)"><path
     clip-path="url(#SVGID_2_)"
     d="m 33.135,54.473 30.793,47.189 h 0.696 L 95.59,54.126 v 69.74 h 33.479 V 2.431 H 93.506 L 64.536,49.443 35.565,2.431 H 0 v 121.435 h 33.135 z m 302.837,71.823 c 11.101,0 21.049,-1.793 29.837,-5.379 8.792,-3.583 16.421,-8.037 22.898,-13.355 V 52.916 h -55.86 v 22.956 l 23.928,-0.002 0.016,16.424 c -5.11,3.356 -11.606,5.029 -19.495,5.029 -4.874,0 -9.317,-0.834 -13.317,-2.513 -4.005,-1.676 -7.485,-3.991 -10.445,-6.94 -2.961,-2.95 -5.25,-6.506 -6.875,-10.668 -1.624,-4.163 -2.436,-8.676 -2.436,-13.534 v -0.346 c 0,-4.626 0.808,-8.961 2.43,-13.01 1.615,-4.049 3.817,-7.575 6.59,-10.584 2.779,-3.006 6.046,-5.377 9.804,-7.113 3.759,-1.733 7.833,-2.602 12.23,-2.602 6.011,0 11.302,0.986 15.874,2.95 4.567,1.967 9.049,4.801 13.447,8.501 L 384.369,17.696 C 377.894,12.147 370.754,7.808 362.947,4.685 355.142,1.562 345.858,0 335.104,0 c -9.369,0 -18.066,1.622 -26.091,4.858 -8.025,3.239 -14.918,7.721 -20.667,13.445 -5.757,5.724 -10.274,12.433 -13.554,20.123 -3.279,7.692 -4.919,15.934 -4.919,24.722 v 0.347 c 0,9.254 1.675,17.726 5.034,25.416 3.35,7.692 7.976,14.313 13.876,19.862 5.898,5.554 12.866,9.863 20.905,12.926 8.035,3.065 16.797,4.597 26.284,4.597 M 221.691,2.434 273.025,123.866 h -36.088 l -8.845,-21.686 h -46.841 l -8.675,21.686 H 137.184 L 188.511,2.438 Z M 218.376,76.16 204.843,41.636 191.138,76.16 Z m 219.929,-18.91 51.981,66.616 h 29.558 V 2.431 H 486.705 V 66.615 L 436.637,2.431 h -31.47 v 121.435 h 33.138 z m 189.431,66.616 -8.845,-21.686 H 572.05 l -8.676,21.686 h -35.39 L 579.311,2.436 612.49,2.432 663.823,123.866 Z M 609.174,76.16 595.643,41.636 581.939,76.16 Z m 112.265,47.706 H 673.543 V 75.973 h 47.896 z M 707.398,90.014 h -19.814 v 19.813 h 19.814 z m 25.758,-14.041 h 47.896 v 47.893 h -47.896 z m 12.343,23.944 c 0,6.41 5.198,11.607 11.604,11.607 6.41,0 11.606,-5.197 11.606,-11.607 0,-6.405 -5.196,-11.6 -11.606,-11.6 -6.406,0 -11.604,5.195 -11.604,11.6 M 23.214,146.365 H 0 v 23.214 h 23.214 z m 260.563,11.605 c 0,7.359 5.968,13.326 13.322,13.326 7.36,0 13.327,-5.967 13.327,-13.326 0,-7.355 -5.967,-13.32 -13.327,-13.32 -7.354,-0.001 -13.322,5.964 -13.322,13.32 m 70.179,3.653 h -0.092 l -3.963,-14.694 h -5.555 l -3.93,14.694 h -0.093 l -3.496,-14.694 h -5.74 l 6.272,22.088 h 5.304 l 4.368,-14.944 h 0.094 l 4.367,14.944 h 5.274 l 6.301,-22.088 h -5.553 z m 19.032,-1.747 h 9.173 v -4.273 h -9.173 v -4.182 h 9.704 v -4.492 h -14.853 v 22.088 h 15.414 v -4.554 h -10.265 z m 22.589,-8.658 c 0.291,-0.177 0.618,-0.297 0.982,-0.358 0.364,-0.063 0.723,-0.094 1.077,-0.094 0.687,0 1.398,0.172 2.138,0.515 0.738,0.343 1.335,0.806 1.792,1.388 l 3.402,-3.587 c -0.979,-0.896 -2.116,-1.57 -3.416,-2.028 -1.302,-0.457 -2.575,-0.688 -3.823,-0.688 -1.04,0 -2.069,0.131 -3.089,0.391 -1.02,0.261 -1.936,0.671 -2.744,1.232 -0.812,0.562 -1.468,1.279 -1.966,2.153 -0.5,0.874 -0.749,1.924 -0.749,3.15 0,0.999 0.16,1.848 0.483,2.542 0.322,0.698 0.749,1.291 1.279,1.779 0.531,0.488 1.135,0.89 1.81,1.202 0.677,0.312 1.367,0.583 2.075,0.81 0.729,0.229 1.377,0.443 1.95,0.641 0.571,0.197 1.05,0.417 1.435,0.655 0.386,0.239 0.682,0.505 0.891,0.795 0.207,0.292 0.311,0.646 0.311,1.062 0,0.436 -0.083,0.812 -0.249,1.123 -0.167,0.312 -0.39,0.562 -0.67,0.75 -0.282,0.186 -0.608,0.321 -0.984,0.405 -0.373,0.083 -0.76,0.124 -1.154,0.124 -0.873,0 -1.751,-0.224 -2.635,-0.672 -0.886,-0.446 -1.598,-1.003 -2.138,-1.668 l -3.495,3.557 c 0.975,1.02 2.204,1.806 3.682,2.355 1.475,0.553 3.006,0.828 4.585,0.828 1.082,0 2.133,-0.146 3.152,-0.438 1.019,-0.291 1.924,-0.738 2.714,-1.342 0.79,-0.604 1.42,-1.367 1.888,-2.293 0.468,-0.926 0.702,-2.023 0.702,-3.292 0,-1.103 -0.219,-2.022 -0.655,-2.762 -0.437,-0.738 -0.988,-1.355 -1.653,-1.855 -0.667,-0.5 -1.404,-0.9 -2.217,-1.201 -0.81,-0.302 -1.59,-0.578 -2.34,-0.827 -0.519,-0.166 -0.988,-0.328 -1.403,-0.483 -0.416,-0.155 -0.774,-0.329 -1.076,-0.515 -0.303,-0.188 -0.53,-0.406 -0.687,-0.656 -0.157,-0.25 -0.234,-0.562 -0.234,-0.935 0,-0.438 0.098,-0.797 0.297,-1.078 0.195,-0.28 0.441,-0.508 0.732,-0.685 m 13.355,0.265 h 6.24 v 17.533 h 5.335 v -17.533 h 6.238 v -4.555 h -17.813 z m 22.743,17.534 h 5.273 v -8.579 h 8.549 v -4.399 h -8.549 v -4.555 h 9.267 v -4.555 h -14.54 z m 25.336,-22.088 -9.267,22.088 h 5.803 l 1.622,-4.336 h 8.55 l 1.716,4.336 h 5.928 l -9.173,-22.088 z m -0.314,13.477 2.809,-7.583 2.745,7.583 z m 24.991,-13.477 h -5.366 v 22.088 h 13.914 v -4.648 h -8.548 z m 12.917,22.088 h 5.365 v -22.088 h -5.365 z m 18.97,-22.088 -9.267,22.088 h 5.803 l 1.623,-4.336 h 8.549 l 1.716,4.336 h 5.929 l -9.172,-22.088 z m -0.311,13.477 2.807,-7.583 2.746,7.583 z m -445.646,8.582 v -22.062 h -5.174 l 0.125,14.396 h -0.093 l -8.85,-14.396 H 47.55 v 22.062 h 5.173 L 52.6,154.562 h 0.093 l 8.881,14.427 h 6.044 z m 27.295,0 -9.159,-22.062 h -5.173 l -9.255,22.062 h 5.796 l 1.62,-4.332 h 8.537 l 1.714,4.332 z m -9.098,-8.6 h -5.547 l 2.804,-7.572 z m 26.609,-8.911 v -4.55 H 94.632 v 4.55 h 6.232 v 17.511 h 5.327 v -17.511 z m 23.619,9.19 v -13.74 h -5.329 v 13.306 c 0,0.602 -0.073,1.173 -0.218,1.713 -0.145,0.541 -0.384,1.023 -0.716,1.449 -0.333,0.426 -0.764,0.764 -1.293,1.013 -0.53,0.249 -1.168,0.374 -1.916,0.374 -0.748,0 -1.388,-0.125 -1.918,-0.374 -0.528,-0.249 -0.955,-0.587 -1.276,-1.013 -0.322,-0.426 -0.562,-0.908 -0.718,-1.449 -0.155,-0.54 -0.233,-1.111 -0.233,-1.713 v -13.306 h -5.297 v 13.74 c 0,1.331 0.218,2.54 0.655,3.631 0.436,1.091 1.059,2.025 1.869,2.805 0.81,0.78 1.797,1.387 2.96,1.823 1.164,0.436 2.473,0.654 3.926,0.654 1.434,0 2.737,-0.219 3.91,-0.654 1.174,-0.437 2.177,-1.044 3.008,-1.823 0.83,-0.779 1.469,-1.714 1.916,-2.805 0.447,-1.091 0.67,-2.3 0.67,-3.631 m 24.834,8.321 -5.765,-9.441 c 1.434,-0.436 2.556,-1.164 3.366,-2.182 0.809,-1.017 1.215,-2.275 1.215,-3.771 0,-1.267 -0.239,-2.325 -0.717,-3.178 -0.477,-0.852 -1.116,-1.537 -1.916,-2.057 -0.8,-0.52 -1.704,-0.888 -2.711,-1.107 -1.008,-0.217 -2.04,-0.326 -3.1,-0.326 h -8.414 v 22.062 h 5.205 v -8.756 h 1.815 l 4.79,8.756 z m -6.81,-13.927 c -0.24,0.353 -0.548,0.622 -0.924,0.809 -0.376,0.188 -0.793,0.317 -1.252,0.389 -0.459,0.074 -0.908,0.109 -1.346,0.109 h -2.537 v -5.141 h 2.849 c 0.397,0 0.808,0.03 1.237,0.094 0.428,0.062 0.814,0.182 1.159,0.358 0.344,0.177 0.625,0.426 0.845,0.748 0.219,0.322 0.328,0.742 0.328,1.262 0,0.559 -0.118,1.017 -0.359,1.372 m 26.972,-5.984 c -0.977,-0.894 -2.115,-1.569 -3.412,-2.025 -1.299,-0.457 -2.571,-0.687 -3.818,-0.687 -1.039,0 -2.067,0.131 -3.084,0.391 -1.019,0.26 -1.933,0.67 -2.743,1.23 -0.809,0.56 -1.464,1.277 -1.963,2.15 -0.498,0.871 -0.748,1.921 -0.748,3.146 0,0.997 0.161,1.843 0.484,2.539 0.321,0.697 0.748,1.289 1.277,1.776 0.529,0.487 1.132,0.889 1.807,1.2 0.675,0.312 1.366,0.581 2.073,0.81 0.726,0.229 1.376,0.44 1.947,0.64 0.571,0.197 1.048,0.415 1.433,0.654 0.385,0.238 0.681,0.503 0.888,0.793 0.208,0.292 0.312,0.645 0.312,1.061 0,0.437 -0.083,0.811 -0.249,1.122 -0.167,0.312 -0.389,0.561 -0.67,0.747 -0.281,0.188 -0.608,0.322 -0.982,0.405 -0.374,0.083 -0.758,0.125 -1.152,0.125 -0.873,0 -1.751,-0.224 -2.634,-0.669 -0.883,-0.447 -1.594,-1.004 -2.134,-1.667 l -3.49,3.55 c 0.977,1.02 2.202,1.803 3.677,2.354 1.475,0.551 3.002,0.825 4.581,0.825 1.079,0 2.128,-0.145 3.146,-0.436 1.018,-0.291 1.922,-0.737 2.712,-1.339 0.788,-0.604 1.418,-1.366 1.884,-2.291 0.467,-0.925 0.702,-2.021 0.702,-3.287 0,-1.102 -0.219,-2.02 -0.655,-2.757 -0.436,-0.738 -0.986,-1.356 -1.651,-1.855 -0.666,-0.498 -1.403,-0.897 -2.213,-1.2 -0.809,-0.3 -1.588,-0.575 -2.337,-0.824 -0.519,-0.167 -0.986,-0.328 -1.402,-0.483 -0.416,-0.156 -0.773,-0.327 -1.075,-0.514 -0.301,-0.188 -0.529,-0.406 -0.685,-0.655 -0.156,-0.25 -0.233,-0.561 -0.233,-0.935 0,-0.437 0.098,-0.795 0.294,-1.075 0.199,-0.28 0.443,-0.509 0.733,-0.686 0.291,-0.176 0.618,-0.296 0.981,-0.357 0.364,-0.062 0.722,-0.094 1.076,-0.094 0.685,0 1.396,0.171 2.134,0.514 0.737,0.343 1.335,0.806 1.792,1.386 z m 21.125,2.4 v -4.55 h -17.793 v 4.55 h 6.233 v 17.512 h 5.328 v -17.512 z m 19.692,17.511 v -4.55 h -10.252 v -4.58 h 9.161 v -4.271 h -9.161 v -4.174 h 9.691 v -4.487 h -14.831 v 22.062 z m 11.374,-22.061 h -5.36 v 22.062 h 5.36 z m 26.484,22.06 v -22.061 h -5.172 l 0.124,14.396 h -0.094 l -8.848,-14.396 h -6.077 v 22.061 h 5.174 l -0.126,-14.427 h 0.094 l 8.879,14.427 z"
     id="path10" /></g>
</g>
</svg>
